<svg id="Layer_1" data-name="Layer 1" xmlns="http://www.w3.org/2000/svg" viewBox="0 0 910.83 280.13"><defs><style>.cls-1{fill:#ff1f1f;}.cls-2{fill:#f9c00b;}.cls-3{fill:#ff0;}.cls-4{fill:red;opacity:0.5;}.cls-5{font-size:250px;font-family:FedraMono-Medium, Fedra Mono;}.cls-6{letter-spacing:0.03em;}.cls-7{letter-spacing:0.03em;}.cls-8{letter-spacing:0.03em;}</style></defs><title>logo</title><rect class="cls-1" y="91.27" width="162.73" height="162.73" rx="4" ry="4"/><path class="cls-2" d="M51.93,28.14V51.93H28.14V32.14a4,4,0,0,1,4-4Z" transform="translate(-4.34 39.34)"/><path class="cls-2" d="M190.86,167.07v19.79a4,4,0,0,1-4,4H167.07V167.07Z" transform="translate(-4.34 39.34)"/><path class="cls-3" d="M167.07,167.07v23.79H32.14a4,4,0,0,1-4-4V51.93H51.93V163.07a4,4,0,0,0,4,4Z" transform="translate(-4.34 39.34)"/><path class="cls-4" d="M214.66,8.34V163.07a4,4,0,0,1-4,4H167.07V55.93a4,4,0,0,0-4-4H51.93V8.34a4,4,0,0,1,4-4H210.66A4,4,0,0,1,214.66,8.34Z" transform="translate(-4.34 39.34)"/><text class="cls-5" transform="translate(254.37 213.38)">p<tspan class="cls-6" x="150" y="0">a</tspan><tspan class="cls-7" x="306.25" y="0">r</tspan><tspan class="cls-8" x="463.74" y="0">r</tspan></text><path class="cls-2" d="M167.07,55.93V167.07H55.93a4,4,0,0,1-4-4V51.93H163.07A4,4,0,0,1,167.07,55.93Z" transform="translate(-4.34 39.34)"/></svg>